<svg xmlns="http://www.w3.org/2000/svg">

  <symbol id="turnon-ico" xmlns="http://www.w3.org/2000/svg" viewBox="0 0 120 108.9">
    <path d="M60.02,0L0,38.75l5.85,9.07,11.07-7.14v49.14h12.05v19.07l19.07-19.07h55.07V40.68l11.03,7.14,5.85-9.07L60.02,0Zm32.29,79.06H48.12l-10.76,10.77-.83,.83v-11.6h-8.84V33.73L60.02,12.8l32.29,20.93v45.33Z"/>
    <g><g><path d="M36.06,47.04l4.33,4.33c10.81-10.81,28.39-10.81,39.21,0l4.33-4.33c-13.2-13.2-34.68-13.2-47.87,0Z"/><path d="M44.29,55.26l4.33,4.33c6.27-6.27,16.48-6.27,22.76,0l4.33-4.33c-8.67-8.67-22.76-8.67-31.42,0Z"/></g><circle cx="60" cy="65.92" r="5.84"/></g>
</symbol>
 
<symbol xmlns="http://www.w3.org/2000/svg" xmlns:xlink="http://www.w3.org/1999/xlink" version="1.1" id="zigbee-ico" viewBox="0 0 24 24"><path d="M4.06,6.15C3.97,6.17 3.88,6.22 3.8,6.28C2.66,7.9 2,9.87 2,12A10,10 0 0,0 12,22C15,22 17.68,20.68 19.5,18.6L17,18.85C14.25,19.15 11.45,19.19 8.66,18.96C7.95,18.94 7.24,18.76 6.59,18.45C5.73,18.06 5.15,17.23 5.07,16.29C5.06,16.13 5.12,16 5.23,15.87L7.42,13.6L15.03,5.7V5.6H10.84C8.57,5.64 6.31,5.82 4.06,6.15M20.17,17.5C20.26,17.47 20.35,17.44 20.43,17.39C21.42,15.83 22,14 22,12A10,10 0 0,0 12,2C9.22,2 6.7,3.13 4.89,4.97H5.17C8.28,4.57 11.43,4.47 14.56,4.65C15.5,4.64 16.45,4.82 17.33,5.17C18.25,5.53 18.89,6.38 19,7.37C19,7.53 18.93,7.7 18.82,7.82L9.71,17.19L9,17.95V18.06H13.14C15.5,18 17.84,17.81 20.17,17.5Z" />
</symbol>

<symbol xmlns="http://www.w3.org/2000/svg" xmlns:xlink="http://www.w3.org/1999/xlink" version="1.1" id="iobroker-ico" viewBox="0 0 24 24"><path d="M12 2C11.5 2 11 2.04 10.5 2.11V4.85C11 4.75 11.5 4.7 12 4.7C12.5 4.7 13 4.75 13.5 4.85V2.12C13 2.04 12.5 2 12 2M9.82 2.25C5.4 3.25 2.11 7.24 2.11 12C2.11 17.5 6.53 22 12 22C17.47 22 21.89 17.5 21.89 12C21.89 7.24 18.6 3.25 14.19 2.25V5.03C17.17 5.96 19.34 8.73 19.34 12C19.34 16 16.05 19.3 12 19.3C7.96 19.3 4.67 16 4.67 12C4.67 8.73 6.84 5.96 9.82 5.03M12 5.45C11.5 5.45 11 5.5 10.5 5.62V18.27C11 18.38 11.5 18.44 12 18.44C12.5 18.44 13 18.39 13.5 18.27V5.62C13 5.5 12.5 5.45 12 5.45Z" />
</symbol>


<symbol id="homeassistant-ico" xmlns="http://www.w3.org/2000/svg" viewBox="0 0 512 457.24"><defs><style>.cls-1{fill:#fff;}.cls-2{fill:#3dbcf3;}</style></defs><path class="cls-1" d="M360.2,242.91c-11.54,.12-20.8,9.58-20.68,21.12,.12,11.54,9.57,20.8,21.12,20.68h.04c11.47-.07,20.71-9.43,20.64-20.9,0-.07,0-.15,0-.22-.12-11.54-9.58-20.8-21.12-20.68Z"/><path class="cls-1" d="M150.78,242.91c-11.54,.13-20.79,9.6-20.66,21.14,.13,11.54,9.6,20.79,21.14,20.66h.02c11.47-.07,20.72-9.43,20.64-20.9,0-.08,0-.16,0-.24-.13-11.54-9.6-20.79-21.14-20.66Z"/><path class="cls-1" d="M508.56,252.34l-53.72-55.52V109.42c.03-5.58-4.46-10.13-10.04-10.17h-41.91c-5.58,.03-10.09,4.58-10.06,10.17v23.77L266.65,4.51l-.13-.13s-.09-.09-.14-.14c-5.93-5.77-15.41-5.64-21.18,.29L3.46,252.21C1.28,254.46,.04,257.45,0,260.58c-.09,6.75,5.31,12.28,12.06,12.37H56.93v174.03s0,.06,0,.09c-.03,5.58,4.47,10.14,10.06,10.17H444.83c5.58-.04,10.07-4.59,10.04-10.17v-174.03h45.06c3.16,0,6.2-1.25,8.45-3.47,4.76-4.73,4.84-12.4,.18-17.23Zm-148.13,63.71c-6.92,0-13.76-1.41-20.11-4.15l-65.1,65.83v79.42h-38.77v-79.4l-65.08-65.83c-6.36,2.73-13.2,4.15-20.12,4.15-28.31,0-51.35-22.78-51.67-51.09-.32-28.54,22.55-51.93,51.09-52.26,28.54-.32,51.93,22.55,52.26,51.09,0,7.01-1.39,13.95-4.1,20.41l37.69,38.09v-115.84c-12.98-5.25-23.27-15.54-28.52-28.52-10.7-26.46,2.06-56.58,28.52-67.29,26.46-10.7,56.58,2.06,67.29,28.52,10.7,26.46-2.06,56.58-28.52,67.29v115.84l37.69-38.09c-2.71-6.46-4.1-13.4-4.1-20.41v-.02c-.15-28.69,22.98-52.07,51.68-52.22l-.13-.02c28.1,.53,50.75,23.18,51.28,51.28,.54,28.86-22.42,52.69-51.28,53.23Z"/><path class="cls-1" d="M276.67,157.79c-.12-11.54-9.58-20.8-21.12-20.68-11.54,.12-20.8,9.58-20.68,21.12,.12,11.54,9.58,20.8,21.12,20.68h.04c11.47-.07,20.72-9.43,20.64-20.9,0-.07,0-.15,0-.22Z"/><path class="cls-2" d="M360.42,211.82l.13,.02c-28.69,.15-51.83,23.59-51.68,52.36v.02c0,7.03,1.39,13.98,4.1,20.46l-37.69,38.19v-116.14c26.46-10.73,39.22-40.94,28.52-67.46-10.71-26.53-40.83-39.33-67.29-28.6-26.46,10.73-39.22,40.94-28.52,67.46,5.25,13.01,15.54,23.33,28.52,28.6v116.14l-37.69-38.19c2.71-6.48,4.1-13.43,4.1-20.46-.32-28.61-23.72-51.55-52.26-51.22-28.54,.32-51.41,23.78-51.09,52.39,.32,28.38,23.36,51.22,51.67,51.22,6.92,0,13.76-1.42,20.12-4.16l65.08,66v79.61h38.77v-79.62l65.1-66c6.35,2.74,13.2,4.16,20.11,4.16,28.86-.54,51.81-24.44,51.28-53.37-.53-28.17-23.18-50.88-51.28-51.41Zm-209.15,73.35h-.02c-11.54,.13-21.01-9.14-21.14-20.72-.13-11.57,9.12-21.06,20.66-21.19,11.54-.13,21.01,9.14,21.14,20.72,0,.08,0,.16,0,.24,.07,11.5-9.17,20.88-20.64,20.96Zm104.76-106.08h-.04c-11.54,.12-21-9.16-21.12-20.73-.12-11.57,9.14-21.05,20.68-21.17,11.54-.12,21,9.16,21.12,20.73,0,.07,0,.15,0,.22,.07,11.5-9.17,20.88-20.64,20.96Zm104.65,106.08h-.13s.06,0,.09,0c-11.54,.12-20.99-9.16-21.12-20.73-.12-11.57,9.14-21.05,20.68-21.17,11.54-.12,21,9.16,21.12,20.73,0,.07,0,.15,0,.22,.07,11.5-9.17,20.88-20.64,20.95Z"/><path class="cls-1" d="M360.64,284.71h0Z"/></symbol>



<symbol xmlns="http://www.w3.org/2000/svg" id="openhub-ico" viewBox="0 0 32 32"><path d="M3.449,21.989,14.4,11.025l1.6-1.6,1.6,1.6,8.087,8.087-.012.041-.16.47-.181.459-.2.448-.224.437-.2.354L16,12.62,4.613,24.016a13.1,13.1,0,0,1-1.164-2.028Z"/><path d="M16,2A14,14,0,1,1,5.431,25.162l.495-.5.359-.359.36-.36.36-.36.015-.015a11.708,11.708,0,1,0-2.5-5.03l-.78.782L2.7,20.365A13.994,13.994,0,0,1,16,2Z"/></symbol>
</svg>