<svg xmlns="http://www.w3.org/2000/svg">
  <symbol xmlns="http://www.w3.org/2000/svg" viewBox="0 0 71.43 75.51" id="kde_logo">
    <path d="M41.634 0L29.076 1.202v51.71l12.424-1.87V28.995l16.7 24.452 13.1-4.143-17.1-23.516 17.23-22.18L58.07.536 41.5 22.715zM13.168 12.6a.637.637 0 0 0-.385.184l-4.929 4.928a.638.638 0 0 0-.093.782l5.771 9.5a24.665 24.665 0 0 0-2.432 5.538l-10.594 2.2A.638.638 0 0 0 0 36.36v6.969a.636.636 0 0 0 .486.619l10.282 2.513a24.634 24.634 0 0 0 2.521 6.39l-5.952 9.076a.637.637 0 0 0 .083.8l4.927 4.928a.642.642 0 0 0 .783.1l9.327-5.664a24.659 24.659 0 0 0 5.9 2.453l2.176 10.463a.637.637 0 0 0 .624.507h6.97a.637.637 0 0 0 .619-.487l2.559-10.485a24.564 24.564 0 0 0 6.065-2.552l9.191 6.026a.637.637 0 0 0 .8-.081l4.929-4.928a.635.635 0 0 0 .093-.782l-3.355-5.529-1.085.343a.375.375 0 0 1-.424-.147l-4.9-7.178a19.97 19.97 0 1 1-25.976-27.295v-5.152A24.6 24.6 0 0 0 23 18.875l-.005-.006-9.407-6.17a.639.639 0 0 0-.415-.1z"
      fill="#1d99f3"></path>
  </symbol>

  <symbol id="turnon-ico" xmlns="http://www.w3.org/2000/svg" viewBox="0 0 120 108.9">
    <path d="M60.02,0L0,38.75l5.85,9.07,11.07-7.14v49.14h12.05v19.07l19.07-19.07h55.07V40.68l11.03,7.14,5.85-9.07L60.02,0Zm32.29,79.06H48.12l-10.76,10.77-.83,.83v-11.6h-8.84V33.73L60.02,12.8l32.29,20.93v45.33Z"/>
    <g><g><path d="M36.06,47.04l4.33,4.33c10.81-10.81,28.39-10.81,39.21,0l4.33-4.33c-13.2-13.2-34.68-13.2-47.87,0Z"/><path d="M44.29,55.26l4.33,4.33c6.27-6.27,16.48-6.27,22.76,0l4.33-4.33c-8.67-8.67-22.76-8.67-31.42,0Z"/></g><circle cx="60" cy="65.92" r="5.84"/></g>
</symbol>
 
<symbol xmlns="http://www.w3.org/2000/svg" xmlns:xlink="http://www.w3.org/1999/xlink" version="1.1" id="zigbee-ico" viewBox="0 0 24 24"><path d="M4.06,6.15C3.97,6.17 3.88,6.22 3.8,6.28C2.66,7.9 2,9.87 2,12A10,10 0 0,0 12,22C15,22 17.68,20.68 19.5,18.6L17,18.85C14.25,19.15 11.45,19.19 8.66,18.96C7.95,18.94 7.24,18.76 6.59,18.45C5.73,18.06 5.15,17.23 5.07,16.29C5.06,16.13 5.12,16 5.23,15.87L7.42,13.6L15.03,5.7V5.6H10.84C8.57,5.64 6.31,5.82 4.06,6.15M20.17,17.5C20.26,17.47 20.35,17.44 20.43,17.39C21.42,15.83 22,14 22,12A10,10 0 0,0 12,2C9.22,2 6.7,3.13 4.89,4.97H5.17C8.28,4.57 11.43,4.47 14.56,4.65C15.5,4.64 16.45,4.82 17.33,5.17C18.25,5.53 18.89,6.38 19,7.37C19,7.53 18.93,7.7 18.82,7.82L9.71,17.19L9,17.95V18.06H13.14C15.5,18 17.84,17.81 20.17,17.5Z" />
</symbol>

<symbol xmlns="http://www.w3.org/2000/svg" xmlns:xlink="http://www.w3.org/1999/xlink" version="1.1" id="iobroker-ico" viewBox="0 0 24 24"><path d="M12 2C11.5 2 11 2.04 10.5 2.11V4.85C11 4.75 11.5 4.7 12 4.7C12.5 4.7 13 4.75 13.5 4.85V2.12C13 2.04 12.5 2 12 2M9.82 2.25C5.4 3.25 2.11 7.24 2.11 12C2.11 17.5 6.53 22 12 22C17.47 22 21.89 17.5 21.89 12C21.89 7.24 18.6 3.25 14.19 2.25V5.03C17.17 5.96 19.34 8.73 19.34 12C19.34 16 16.05 19.3 12 19.3C7.96 19.3 4.67 16 4.67 12C4.67 8.73 6.84 5.96 9.82 5.03M12 5.45C11.5 5.45 11 5.5 10.5 5.62V18.27C11 18.38 11.5 18.44 12 18.44C12.5 18.44 13 18.39 13.5 18.27V5.62C13 5.5 12.5 5.45 12 5.45Z" />
</symbol>

<symbol xmlns="http://www.w3.org/2000/svg" viewBox="0 0 32 32"><path d="M5.114,27.944V18.427H2.66a.668.668,0,0,1-.47-1.134L15.41,3.748h0a.819.819,0,0,1,1.166-.008l.007.007,6.9,7.037v-1.3h0a.553.553,0,0,1,.55-.556h2.292a.553.553,0,0,1,.549.556v4.78L29.812,17.3h0a.671.671,0,0,1-.01.942.657.657,0,0,1-.462.19H26.876v9.517a.553.553,0,0,1-.549.556H5.664A.553.553,0,0,1,5.114,27.944Z"/><path d="M21.718,15.07a2.841,2.841,0,0,0-2.826,2.857,2.876,2.876,0,0,0,.224,1.116l-2.061,2.083V14.791a2.826,2.826,0,1,0-2.12,0v6.335l-2.061-2.083a2.876,2.876,0,0,0,.224-1.116,2.826,2.826,0,1,0-2.826,2.858,2.791,2.791,0,0,0,1.1-.227l3.559,3.6V28.5h2.12V24.157l3.56-3.6a2.782,2.782,0,0,0,1.1.227,2.858,2.858,0,0,0,0-5.715Zm-11.446,4a1.143,1.143,0,1,1,1.13-1.143A1.136,1.136,0,0,1,10.272,19.07ZM16,13.284a1.143,1.143,0,1,1,1.131-1.143A1.136,1.136,0,0,1,16,13.284Zm5.723,5.786a1.143,1.143,0,1,1,1.131-1.143A1.136,1.136,0,0,1,21.718,19.07Z"/>
</symbol>

</svg>