<svg xmlns="http://www.w3.org/2000/svg">
  <symbol xmlns="http://www.w3.org/2000/svg" viewBox="0 0 71.43 75.51" id="kde_logo">
    <path d="M41.634 0L29.076 1.202v51.71l12.424-1.87V28.995l16.7 24.452 13.1-4.143-17.1-23.516 17.23-22.18L58.07.536 41.5 22.715zM13.168 12.6a.637.637 0 0 0-.385.184l-4.929 4.928a.638.638 0 0 0-.093.782l5.771 9.5a24.665 24.665 0 0 0-2.432 5.538l-10.594 2.2A.638.638 0 0 0 0 36.36v6.969a.636.636 0 0 0 .486.619l10.282 2.513a24.634 24.634 0 0 0 2.521 6.39l-5.952 9.076a.637.637 0 0 0 .083.8l4.927 4.928a.642.642 0 0 0 .783.1l9.327-5.664a24.659 24.659 0 0 0 5.9 2.453l2.176 10.463a.637.637 0 0 0 .624.507h6.97a.637.637 0 0 0 .619-.487l2.559-10.485a24.564 24.564 0 0 0 6.065-2.552l9.191 6.026a.637.637 0 0 0 .8-.081l4.929-4.928a.635.635 0 0 0 .093-.782l-3.355-5.529-1.085.343a.375.375 0 0 1-.424-.147l-4.9-7.178a19.97 19.97 0 1 1-25.976-27.295v-5.152A24.6 24.6 0 0 0 23 18.875l-.005-.006-9.407-6.17a.639.639 0 0 0-.415-.1z"
      fill="#1d99f3"></path>
  </symbol>
<symbol id="myhome2" xmlns="http://www.w3.org/2000/svg" viewBox="0 0 120 108.9"><path d="M60.02,0L0,38.75l5.85,9.07,11.07-7.14v49.14h12.05v19.07l19.07-19.07h55.07V40.68l11.03,7.14,5.85-9.07L60.02,0Zm32.29,79.06H48.12l-10.76,10.77-.83,.83v-11.6h-8.84V33.73L60.02,12.8l32.29,20.93v45.33Z"/><g><g><path d="M36.06,47.04l4.33,4.33c10.81-10.81,28.39-10.81,39.21,0l4.33-4.33c-13.2-13.2-34.68-13.2-47.87,0Z"/><path d="M44.29,55.26l4.33,4.33c6.27-6.27,16.48-6.27,22.76,0l4.33-4.33c-8.67-8.67-22.76-8.67-31.42,0Z"/></g><circle cx="60" cy="65.92" r="5.84"/></g>

</symbol>
 
 <symbol xmlns="http://www.w3.org/2000/svg" id="linuxmint-inverse">
    <g color="#000" fill-rule="evenodd">
      <path d="M238.277 485.501c-95.208 0-177.83-72.177-177.83-167.3l-.086-98.347V190.4H.001V26.5l254.543 1.199 79.626.171C429.463 27.87 512 99.96 512 195.169v290.333H238.277z" fill="#81c63b" overflow="visible"></path>
      <path d="M241.16 478.384c-91.288 0-170.51-69.206-170.51-160.413l-.081-110.745v-28.24H12.692V38.276l244.067 1.149 76.347.164c91.372 0 170.51 69.124 170.51 160.413v278.382H241.162zm225.267-74.676V200.002c0-68.056-59.682-123.224-133.32-123.224h-76.43v-.164l-206.714-.903v66.086h23.156c15.72 0 34.638 14.774 34.638 36.453l.164 139.64c0 68.055 59.683 123.223 133.24 123.223h181.61c23.283 0 43.657-14.745 43.657-37.405z"
        fill="#fff" overflow="visible"></path>
      <path d="M286.675 150.359c-17.25 0-32.576 6.404-44.89 18.843-12.308 12.433-18.771 27.955-18.771 45.472v88.544h40.16v-88.544c0-6.714 2.192-11.964 6.985-16.806 4.81-4.858 9.903-7.057 16.516-7.057 6.751 0 11.768 2.188 16.588 7.057 4.794 4.842 6.985 10.092 6.985 16.806v88.544h40.16v-88.544c0-6.714 2.191-11.964 6.985-16.806 4.82-4.87 9.837-7.057 16.588-7.057 6.613 0 11.706 2.199 16.516 7.057 4.794 4.842 6.984 10.092 6.984 16.806l.219 103.459c0 22.07-21.018 40.67-48.019 40.67l-129.505-.51c-20.836 0-38.633-20.28-38.633-46.345V117.121h-37.978v202.321c0 21.466 7.855 40.29 23.136 55.513 13.061 12.892 28.77 21.249 46.418 23.136H357.32c22.159 0 41.626-8.24 57.332-24.228h.073c13.357-13.724 21.165-30.167 23.063-48.673l-.145-110.516c0-17.517-6.463-33.039-18.771-45.472-12.315-12.44-27.641-18.843-44.89-18.843-16.932 0-31.747 6.296-43.726 17.825-11.945-11.51-26.656-17.825-43.58-17.825z"
        fill="#fff" overflow="visible"></path>
    </g>
  </symbol>
  <symbol xmlns="http://www.w3.org/2000/svg" viewBox="0 0 70 70.008" id="lxde">
    <path d="M35 0A35 35 0 0 0 0 35.008c0 .449.007.895.024 1.34 11.18-7.891 30.244-20.894 34.968-21.236 1.566-1.983 6.913-3.56 7.887-3.525l-2.791 3.493s-.089 3.57-1.132 4.266c9.745 6.512 14.422 29.933 16.411 44.123A35 35 0 0 0 35.005 0zm-1.73 31.627c-2.621.078-8 7.911-14.075 16.3-2.92 4.031-5.936 8.236-8.716 12.057a35.027 35.027 0 0 0 43.15 4.665c-4.151-12.691-12.043-32.958-20.12-33.006a1.148 1.148 0 0 0-.239-.016zm-19.625 3.2c-2.4-.018-8.342 2.047-13.437 4.011a34.765 34.765 0 0 0 4.219 13.23 470.758 470.758 0 0 1 3.15-4.7c4.045-5.945 7.962-11.2 7.042-12.281a1.348 1.348 0 0 0-.973-.263zm6.316 2.99c-1.938.294-8.937 9.017-14.5 15.981a35.1 35.1 0 0 0 3 4.035c5.716-9.36 12.115-19.563 11.771-19.984a.47.47 0 0 0-.272-.034z"
      fill="#0068c8" fill-rule="evenodd"></path>
  </symbol>
  <symbol xmlns="http://www.w3.org/2000/svg" viewBox="0 0 80 75.509" id="lxqt">
    <path d="M35.116 21.866A13.035 13.035 0 0 1 46.147.078a13.278 13.278 0 0 1 10.1 6.884L80 10.236H52.928a10.674 10.674 0 0 0-17.813 11.63" fill="#1a1a1a"></path>
    <g fill="#0192d3">
      <path d="M38.456 30.747L2.1 4.627a19.489 19.489 0 0 0 15.928 28.237 14.908 14.908 0 0 1-9.561-18.93l29.989 16.813"></path>
      <path d="M36.437 37.802L4.493 28.82A16.325 16.325 0 0 0 25 45.977a13.926 13.926 0 0 1-11.119-5.572 13.754 13.754 0 0 1-2.593-6.716l25.149 4.113"></path>
    </g>
    <path d="M51.007 17.756a14.081 14.081 0 0 0-1.221 3.9c-.665 4.186.579 8.413 1.82 12.466s2.505 8.27 1.879 12.462a16.124 16.124 0 0 1-4.133 8.4 21.568 21.568 0 0 1-7.8 5.288 26.093 26.093 0 0 1-15.361 1.308v13.93l4.19-9.946a27.144 27.144 0 0 0 16.382-1.412 23.04 23.04 0 0 0 9.458-7.1 17.8 17.8 0 0 0 3.762-11.112c-.123-4.79-2.387-9.23-4.578-13.492s-4.411-8.736-4.436-13.528c0-.386.01-.773.037-1.159"
      fill="#0192d3"></path>
  </symbol>
  <symbol xmlns="http://www.w3.org/2000/svg" viewBox="0 0 200 200" id="manjaro">
    <g fill="#35bf5c" fill-rule="evenodd" stroke-width="7.074" stroke-linecap="round" stroke-dasharray="21.222,21.222">
      <path d="M141.465 0H200v200h-58.535zM70.73 70.73h58.536V200H70.73z"></path>
      <path d="M0 0v200h58.535V58.535h70.73V0H0z"></path>
    </g>
  </symbol>
  <symbol xmlns="http://www.w3.org/2000/svg" viewBox="0 0 52.795 58.646" id="mate">
    <g fill="#87a556">
      <path d="M28.333 4.722A24.5 24.5 0 0 0 5.85 19.583l2.882 1.7A21.067 21.067 0 0 1 31.683 8.368v-3.4a24.3 24.3 0 0 0-3.35-.246zM38.35 6.875l-.017 3.733c.555.3 1.091.627 1.614.972l3.16-1.858a24.46 24.46 0 0 0-4.757-2.847zm-10.017 6.163a16.184 16.184 0 0 0-15.231 10.815l2.986 1.771a12.707 12.707 0 0 1 12.24-9.2 12.887 12.887 0 0 1 3.333.434v-3.456a16.033 16.033 0 0 0-3.328-.364zm19.618 1.545l-2.9 1.719a21.138 21.138 0 0 1-.156 25.951l2.9 1.719a24.4 24.4 0 0 0 .157-29.392zm-7.24 4.288l-2.934 1.719a12.752 12.752 0 0 1-.191 17.363l2.969 1.753a16.032 16.032 0 0 0 .156-20.833zM4.062 26.253a23.526 23.526 0 0 0-.191 2.934 24.214 24.214 0 0 0 .191 2.917l3.212-1.892c-.016-.339-.035-.681-.035-1.024s.018-.685.035-1.024zm12.031 6.49l-2.991 1.753a16.021 16.021 0 0 0 18.564 10.469v-3.473a13.093 13.093 0 0 1-3.333.434 12.7 12.7 0 0 1-12.24-9.183zm-7.361 4.34l-2.882 1.7a24.5 24.5 0 0 0 22.483 14.862 24.076 24.076 0 0 0 3.316-.243v-3.385A21.164 21.164 0 0 1 8.732 37.083zm30.99 9.861c-.448.287-.919.562-1.389.816l-.017 3.732a24.47 24.47 0 0 0 4.566-2.673z"></path>
      <path d="M35.017 0L35 18.368l15.556-9.184zm-35 20L0 38.368l15.556-9.184zM35 40.295l-.017 18.351 15.556-9.184z" fill-rule="evenodd"></path>
    </g>
  </symbol>
  <symbol xmlns="http://www.w3.org/2000/svg" id="nixos">
    <g fill-rule="evenodd">
      <path d="M156.208 261.478l124.705 216.02-57.31.538-33.296-58.037-33.532 57.723-28.472-.01-14.585-25.194 47.772-82.145-33.91-59.009 28.628-49.886z" fill="#5277c3"></path>
      <path d="M201.219 172.496l-124.73 216.01-29.12-49.367 33.615-57.847-66.758-.175L0 256.451l14.531-25.229 95.02.299 34.149-58.874 57.519-.15zm9.567 172.673l249.431.015-28.189 49.9-66.907-.185 33.227 57.898-14.246 24.656-29.117.034-47.249-82.444-68.062-.139-28.888-49.735zm145.176-94.647L231.257 34.502l57.31-.538 33.296 58.037 33.531-57.728 28.473.01 14.586 25.2-47.773 82.139 33.909 59.014-28.627 49.886z"
        fill="#7ebae4"></path>
      <path d="M156.208 261.478l124.705 216.02-57.31.538-33.296-58.037-33.532 57.723-28.472-.01-14.585-25.194 47.772-82.145-33.91-59.009 28.628-49.886zm144.846-95.195l-249.435-.014 28.194-49.901 66.908.19-33.227-57.903 14.246-24.656 29.11-.03 47.255 82.44 68.058.138 28.891 49.736zm9.727 173.17l124.73-216.004 29.116 49.362-33.61 57.853 66.757.174L512 255.504l-14.53 25.229-95.022-.304-34.148 58.874-57.519.15z"
        fill="#5277c3"></path>
    </g>
  </symbol>
  <symbol xmlns="http://www.w3.org/2000/svg" id="opensuse">
    <g fill="#73ba25">
      <path d="M457.789 275.546c-11.942-.438-21.316-10.505-20.917-22.464.184-5.79 2.659-11.142 6.865-15.093 4.223-3.95 9.738-6.006 15.528-5.788 11.96.418 21.336 10.468 20.934 22.445-.18 5.772-2.622 11.124-6.845 15.092-4.243 3.933-9.758 5.99-15.565 5.808zm5.026-19.644c5.315 0 9.628-2.875 9.628-6.406 0-3.55-4.313-6.427-9.628-6.427-5.317 0-9.614 2.877-9.614 6.427 0 3.531 4.297 6.406 9.614 6.406"></path>
      <path d="M212.103 400.101l.769-.072.124-.91c-.196-.714-.66-1.356-1.376-10.214-.608-7.84-1.84-29.34 8.982-40 4.197-4.161 10.607-7.858 15.662-9.054 20.732-5.054 47.643-1.554 70.625 25.019 11.859 13.731 17.68 20 20.59 22.803l1 .928 1.215.875c.946.536 39.5 18.286 39.5 18.286l.785-.196.019-.838c-.25-.286-24.428-31.52-20.144-57.252 3.394-20.5 19.714-18.66 42.269-16.09 7.375.84 15.768 1.804 24.447 2 24.23.144 50.34-4.303 66.43-11.34 10.41-4.552 17.053-7.553 21.215-11.339 1.498-1.232 2.283-3.267 3.088-5.41l.555-1.446c.677-1.733 1.66-5.447 2.09-7.465.196-.892.285-1.858-.342-2.339l-2.23.41c-7.054 4.233-24.717 12.305-41.251 12.626-20.483.428-61.769-20.608-66.072-22.84l-.41-.482c-1.038-2.465-7.234-17.126-8.538-20.214 29.716 19.57 54.357 30.393 73.233 32.072 21.001 1.874 37.377-9.59 44.377-14.484 1.373-.928 2.411-1.678 2.838-1.838l.447-.733c-1.163-7.374-12.144-43.09-20.43-51.662-2.302-2.357-4.142-4.642-7.857-6.821-30.019-17.5-101.287-28.072-104.625-28.554l-.572.161-.214.5s-.269 14.786-.305 16.43c-7.286-2.43-60.195-19.52-109.805-21.251-42.052-1.482-99.5-3.483-180.68 46.41l-2.393 1.5C46.939 261.1 20.582 290.457 6.797 324.6c-4.322 10.732-10.143 34.966-4.394 57.769 2.5 9.983 7.125 19.983 13.376 28.947 14.09 20.25 37.75 33.698 63.233 35.965 35.964 3.213 63.215-12.946 72.911-43.198 6.66-20.875 0-51.5-25.536-67.125-20.768-12.733-43.126-9.822-56.073-1.268-11.25 7.464-17.624 19.035-17.5 31.768.25 22.554 19.698 34.554 33.663 34.572 4.07 0 8.142-.696 12.749-2.196 1.626-.5 3.178-1.107 4.875-2.161l.519-.339.338-.197-.125.054c3.197-2.143 5.125-5.678 5.125-9.464 0-1.036-.16-2.09-.447-3.143-1.642-5.697-7.286-9.16-13.143-8.09l-.785.161-1.071.357-1.554.518c-3.215.804-5.644.858-6.143.874-1.643-.106-9.698-2.516-9.698-11.338v-.107c.02-3.232 1.322-5.5 2.037-6.732 2.482-3.93 9.34-7.786 18.606-6.965 12.145 1.035 20.895 7.268 26.698 19.019 5.394 10.928 3.983 24.357-3.625 34.214-7.554 9.769-21 13.911-38.893 11.964-18.037-1.982-33.286-12.357-41.822-28.518-8.357-15.786-8.822-34.519-1.196-48.91 18.268-34.466 52.75-34.11 71.661-30.84 28 4.838 53.412 27.249 64.715 57.054 1.804 4.75 2.732 8.518 3.535 11.946l1.215 5.16 31.624 15.447.43.304h.001zm224.789-168.216c-5.963 5.535-9.376 13.089-9.662 21.232-.552 16.785 12.627 30.929 29.411 31.555 8.18.268 15.93-2.608 21.875-8.18 5.946-5.553 9.359-13.089 9.662-21.214.571-16.804-12.608-30.965-29.428-31.571-8.143-.268-15.912 2.607-21.858 8.178"
        fill-rule="evenodd"></path>
      <path d="M388.074 402.557h-.353a.78.78 0 0 1-.762-.762v-5.47l-1.198 1.823c-.136.19-.381.272-.598.272h-.137c-.217 0-.463-.082-.598-.272l-1.225-1.823v5.47c0 .408-.354.762-.79.762h-.353a.78.78 0 0 1-.762-.762v-6.532h-3.675v6.532c0 .408-.381.762-.816.762h-.327a.78.78 0 0 1-.762-.762v-6.532h-2.748c-.409 0-.735-.272-.735-.707v-.381c0-.436.326-.708.735-.708h9.634c.381 0 .626.136.762.354l1.824 2.749 1.823-2.75c.136-.19.354-.353.762-.353H389v8.382c0 .409-.38.763-.816.763"></path>
    </g>
  </symbol>
  <symbol xmlns="http://www.w3.org/2000/svg" viewBox="0 0 60 62.268" id="ubuntu_logo">
    <path d="M46.837 10.735a5.753 5.753 0 1 0-2.105-7.857 5.752 5.752 0 0 0 2.105 7.857zM35.061 47.942a16.739 16.739 0 0 1-7.08-1.564l-4 7.165a24.994 24.994 0 0 0 17.757 1.678 8.08 8.08 0 0 1 10.835-6.263 24.919 24.919 0 0 0 7.426-16.214l-8.2-.119A16.8 16.8 0 0 1 35.06 47.942zm0-33.617A16.806 16.806 0 0 1 51.8 29.643l8.2-.12a24.919 24.919 0 0 0-7.425-16.213 8.08 8.08 0 0 1-10.834-6.264 24.991 24.991 0 0 0-17.756 1.679l4 7.164a16.738 16.738 0 0 1 7.08-1.564zM18.253 31.133A16.784 16.784 0 0 1 25.4 17.382l-4.207-7.047A25.039 25.039 0 0 0 10.856 24.87a8.08 8.08 0 0 1 0 12.533 25.037 25.037 0 0 0 10.337 14.532l4.207-7.047a16.783 16.783 0 0 1-7.147-13.751zm28.585 20.4a5.753 5.753 0 1 0 7.858 2.105 5.751 5.751 0 0 0-7.858-2.106zM5.754 25.381a5.754 5.754 0 1 0 5.753 5.754 5.753 5.753 0 0 0-5.753-5.754"
      fill="#f47421"></path>
  </symbol>
  <symbol xmlns="http://www.w3.org/2000/svg" viewBox="0 0 60.002 60" id="void">
    <g transform="translate(-27.959)">
      <path d="M57.961 0a30 30 0 0 0-17.492 5.673l6.814 6.814a20.5 20.5 0 0 1 28.185 28.185l6.827 6.827A29.965 29.965 0 0 0 57.961 0z" fill="#abc2ab"></path>
      <path d="M75.452 54.327l-6.814-6.814a20.5 20.5 0 0 1-28.185-28.185l-6.827-6.827a29.958 29.958 0 0 0 41.826 41.826z" fill="#478061"></path>
      <circle cx="9.551" cy="9.551" r="9.551" transform="translate(48.405 20.449)" fill="#abc2ab"></circle>
    </g>
  </symbol>
  <symbol xmlns="http://www.w3.org/2000/svg" viewBox="0 0 56.654 52.844" id="xfce">
    <path d="M15.153 3.796c-.663 3.29.29 7.056 1.621 11.61a.621.621 0 0 1-.216.667c-.6.176-1.641-.011-1.842-.423-1.038-2.131-1.531-4.31-2.743-6.407a15.787 15.787 0 0 0-2.739-3.771c-1.255-1.137-2.238-1.361-3.581-.8a5.6 5.6 0 0 0-3.068 3.926 12.593 12.593 0 0 0 .072 4.873 37.945 37.945 0 0 0 1.282 4.961c-.409 1.21-2.872 7.85-3.467 12.454-.764 5.91-2.914 23.791 16.789 21.8 7.267-.733 13.189-3.28 18.793-5.893 2.568-1.2 5.79-2.742 8.886-4.443a46.559 46.559 0 0 0 8.17-5.447c2.2-1.934 3.8-4.052 3.512-6.163-.47-3.4-2.726-5.93-5.733-7.883s-8.172-3.782-11.9-4.87a54.345 54.345 0 0 0-13.258-2.233c-.257-4.647.363-10.763-2.58-14.325a4.006 4.006 0 0 0-2.867-1.433c-1.915.077-4.518.744-5.133 3.8z"
      fill="#04a"></path>
  </symbol>
  <symbol xmlns="http://www.w3.org/2000/svg" viewBox="0 0 73.77 63.895" id="alpine">
    <path d="M26.802 39.802v-7.776l-5.6 5.607a15.927 15.927 0 0 0 1.706 1.044 10.234 10.234 0 0 0 1.5.669 9.187 9.187 0 0 0 1.3.35 6.382 6.382 0 0 0 1.1.111m28.614-.648a1.35 1.35 0 0 0 .164.115 3.193 3.193 0 0 0 .444.234 3.378 3.378 0 0 0 .734.224 5.138 5.138 0 0 0 1.038.1 6.73 6.73 0 0 0 1.1-.1 8.346 8.346 0 0 0 1.312-.347 11.482 11.482 0 0 0 1.527-.668 16.142 16.142 0 0 0 1.733-1.058l-4.248-4.15-14.075-14.13-6.174 6.174-8.335-8.593L9.731 37.635a15.93 15.93 0 0 0 1.729 1.058 12.017 12.017 0 0 0 1.518.669 8.278 8.278 0 0 0 1.308.347 6.374 6.374 0 0 0 1.1.1 5.223 5.223 0 0 0 1.037-.1 3.793 3.793 0 0 0 .734-.224 2.87 2.87 0 0 0 .444-.227l.167-.12 9.445-9.445 3.371-3.237 9.344 9.344 3.274 3.357a1.485 1.485 0 0 0 .167.116 2.906 2.906 0 0 0 .444.231 4.026 4.026 0 0 0 .734.224 5.207 5.207 0 0 0 1.041.1 6.731 6.731 0 0 0 1.1-.1 7.943 7.943 0 0 0 1.314-.347 11.471 11.471 0 0 0 1.519-.664 16.143 16.143 0 0 0 1.733-1.058l-7.5-7.343 1.383-1.383 6.49 6.49 3.785 3.751M55.328.017L73.771 31.97 55.339 63.895H18.442L.002 31.948 18.442 0z"
      fill="#0b6d92"></path>
  </symbol>
  <symbol xmlns="http://www.w3.org/2000/svg" viewBox="0 0 60 60.012" id="arch">
    <path d="M29.995 0c-2.671 6.549-4.282 10.832-7.256 17.186a46.843 46.843 0 0 0 7.7 6.726 31.851 31.851 0 0 1-8.565-4.9c-3.806 7.942-9.769 19.254-21.869 41 9.506-5.492 16.878-8.877 23.745-10.168a17.41 17.41 0 0 1-.451-4.074l.011-.3c.155-6.095 3.325-10.783 7.079-10.465s6.673 5.519 6.522 11.612a17.212 17.212 0 0 1-.384 3.273c6.8 1.329 14.09 4.706 23.472 10.122-1.85-3.406-3.5-6.476-5.078-9.4a54.719 54.719 0 0 0-10.359-7.143 30.922 30.922 0 0 1 8.26 3.25C36.791 16.868 35.492 12.902 29.995 0z"
      fill="#1793d1" fill-rule="evenodd"></path>
  </symbol>
  <symbol xmlns="http://www.w3.org/2000/svg" id="debian">
    <path d="M52.01 166.816c2.642-8.107 3.12-12.977 4.129-17.668-7.3 9.331-3.36 11.32-4.129 17.668m16.857-56.28c1.314 12.16-9.149 16.88 2.318 8.863 6.146-13.845-2.402-3.824-2.318-8.863M265.601 4.123c5.7-2.088 14.014-1.145 20.061-2.52-7.881.662-15.726 1.056-23.471 2.056l3.41.464m183.162 226.972l-1.238 3.105c-2.27 16.13-7.173 32.09-14.69 46.887 8.305-15.613 13.676-32.69 15.928-49.992m-231.78 50.377c-2.932-3.242-4.668-7.145-6.61-11.034 1.858 6.835 5.662 12.71 9.205 18.681l-2.595-7.647m-13.099.516l-1.182 5.912c5.54 7.525 9.937 15.679 17.012 21.562-5.09-9.937-8.872-14.042-15.83-27.474M413.22 221.43c.502 13.634-3.987 20.249-8.036 31.959l-7.286 3.64c-5.963 11.579.577 7.352-3.692 16.561-9.308 8.276-28.248 25.898-34.31 27.507-4.424-.099 2.998-5.222 3.97-7.23-12.461 8.558-9.998 12.846-29.055 18.044l-.558-1.239c-47 22.111-112.287-21.707-111.429-81.496-.502 3.795-1.426 2.847-2.468 4.382-2.425-30.763 14.206-61.661 42.257-74.277 27.436-13.582 59.601-8.008 79.254 10.308-10.795-14.14-32.282-29.13-57.748-27.727-24.945.394-48.28 16.246-56.069 33.455-12.78 8.046-14.262 31.016-19.83 35.22-7.493 55.064 14.093 78.854 50.607 106.84 5.747 3.875 1.618 4.461 2.397 7.412-12.132-5.681-23.242-14.257-32.376-24.757 4.846 7.093 10.077 13.99 16.838 19.409-11.438-3.875-26.718-27.718-31.18-28.689 19.719 35.304 80 61.914 111.565 48.712-14.605.54-33.16.3-49.571-5.766-6.892-3.547-16.266-10.893-14.59-12.268 43.077 16.092 87.576 12.189 124.85-17.692 9.482-7.384 19.84-19.948 22.834-20.122-4.509 6.78.77 3.26-2.693 9.247 9.449-15.238-4.105-6.202 9.768-26.315l5.123 7.056c-1.905-12.648 15.707-28.008 13.92-48.013 4.039-6.117 4.508 6.583.22 20.657 5.949-15.613 1.567-18.123 3.097-31.006 1.65 4.33 3.818 8.933 4.93 13.502-3.875-15.088 3.979-25.41 5.921-34.178-1.914-.849-5.982 6.672-6.91-11.151.135-7.741 2.153-4.059 2.932-5.963-1.52-.873-5.508-6.808-7.934-18.19 1.76-2.674 4.701 6.935 7.094 7.329-1.539-9.05-4.19-15.951-4.298-22.895-6.99-14.61-2.472 1.947-8.144-6.272-7.44-23.21 6.174-5.386 7.093-15.933 11.279 16.34 17.711 41.666 20.662 52.156-2.252-12.79-5.893-25.18-10.335-37.167 3.424 1.44-5.518-26.314 4.452-7.933-10.65-39.184-45.578-75.796-77.71-92.977 3.93 3.599 8.894 8.117 7.112 8.825-15.98-9.514-13.17-10.255-15.459-14.276-13.019-5.297-13.873.427-22.496.01-24.536-13.014-29.266-11.63-51.846-19.784l1.028 4.8c-16.257-5.415-18.94 2.054-36.51.018-1.07-.835 5.63-3.021 11.142-3.823-15.716 2.073-14.98-3.097-30.358.572 3.79-2.66 7.797-4.42 11.841-6.68-12.817.778-30.598 7.459-25.109 1.383-20.905 9.327-58.034 22.421-78.87 41.957l-.656-4.378c-9.547 11.462-41.633 34.23-44.19 49.074l-2.552.596c-4.968 8.412-8.182 17.945-12.123 26.6-6.498 11.073-9.524 4.26-8.6 5.996-12.779 25.912-19.127 47.685-24.611 65.541 3.908 5.841.094 35.163 1.572 58.63-6.418 115.9 81.341 228.43 177.269 254.412 14.06 5.03 34.97 4.837 52.756 5.353-20.985-6-23.697-3.18-44.138-10.307-14.745-6.944-17.978-14.872-28.421-23.936l4.133 7.304c-20.483-7.248-11.912-8.97-28.576-14.248l4.415-5.766c-6.639-.502-17.584-11.189-20.577-17.105l-7.263.286c-8.726-10.767-13.375-18.527-13.037-24.536l-2.346 4.18c-2.66-4.565-32.104-40.38-16.829-32.043-2.838-2.595-6.61-4.223-10.701-11.654l3.11-3.556c-7.351-9.458-13.53-21.581-13.06-25.62 3.921 5.296 6.642 6.286 9.335 7.191-18.564-46.061-19.606-2.538-33.666-46.887l2.974-.239c-2.28-3.434-3.664-7.164-5.498-10.823l1.295-12.902c-13.366-15.454-3.74-65.71-1.811-93.272 1.337-11.208 11.156-23.139 18.625-41.849l-4.55-.783c8.698-15.173 49.664-60.934 68.637-58.579 9.19-11.546-1.825-.042-3.622-2.95 20.187-20.892 26.535-14.76 40.16-18.518 14.693-8.722-12.612 3.401-5.645-3.326 25.4-6.489 18.002-14.75 51.138-18.044 3.495 1.99-8.112 3.073-11.025 5.653 21.163-10.354 66.971-7.999 96.725 5.747 34.525 16.135 73.315 63.829 74.844 108.703l1.74.47c-.881 17.836 2.731 38.465-3.528 57.414l4.26-8.97M272.925 10.669l-3.18.657 2.96-.263.22-.394m-8.989-2.5c4.5.806 9.72 1.425 8.989 2.5 4.921-1.08 6.038-2.074-8.989-2.5m93.92 207.505c1.018-15.181-2.989-10.382-4.335-4.588 1.571.816 2.815 10.701 4.335 4.588m-16.702 43.463c5.02-6.93 8.68-14.516 9.97-22.36-1.127 5.592-4.162 10.42-7.02 15.515-15.758 9.922-1.482-5.893-.01-11.903-16.945 21.328-2.326 12.79-2.941 18.748m-45.25 11.278c-8.43.117 1.595 4.345 12.602 6.038a112.659 112.659 0 0 0 8.257-7.112c-6.855 1.68-13.83 1.717-20.859 1.074"
      fill="#a80030" overflow="visible"></path>
  </symbol>
  <symbol xmlns="http://www.w3.org/2000/svg" viewBox="0 0 66.211 66.252" id="fedora">
    <path d="M47.448 0a18.785 18.785 0 0 0-18.766 18.764v9.959h-9.918a18.764 18.764 0 1 0 18.764 18.765v-9.96h9.92a18.764 18.764 0 1 0 0-37.528zm-18.7 47.488A9.987 9.987 0 1 1 18.76 37.5h9.918v.028h.07v9.96zm18.7-18.736h-9.92v-.029h-.069v-9.959a9.987 9.987 0 1 1 9.989 9.988z"
      fill="#3c6eb4"></path>
  </symbol>
  <symbol xmlns="http://www.w3.org/2000/svg" viewBox="0 0 95 80.201" id="kali">
    <path d="M1.183.064s33.3-1.083 48.208 5.662c3.684 1.231 3.044 2.216 3.044 2.216s-.985 9.059 6.007 11.029 11.226 1.23 20.878 7.089a5.033 5.033 0 0 1-.247-1.92 20.2 20.2 0 0 1 2.758 3c.64 1.083 2.068.246 2.659.591s2.9 4.086 2.9 4.086v.886s2.117 2.659 4.579 2.856c-1.231.985-2.856 2.216-2.856 2.216s-2.117-2.806-7.582-5.514a4.986 4.986 0 0 1-.935-2.659s.246-.689-6.007-2.9-12.555-5.514-19.3-1.329-10.14 20.728 13.64 22.299c2.985.432 7.623 1.654 10.782 4.283C87.933 57.666 96.5 72.141 94.777 80.2c-1.427-3.53-2.9-15.444-14.721-24.158-3.692-3.441-5.564-4.041-11.472-5.268s-14.475-.344-19.89-8.025 0-17.773 3.053-19.3c.738-.591 2.511-2.117 2.511-2.117s-3.693-8.764-3.685-12.308C36.829.406 1.182.601 1.182.601L0 .455 1.182.061z"></path>
    <path d="M50.409 12.682S28.063 15.299 9.155 27.269c15.358-6.541 10.879-4.671 15.358-6.541a85.78 85.78 0 0 1 26.641-5.5 19.482 19.482 0 0 1-.744-2.544z"></path>
  </symbol>
</svg>