<svg xmlns="http://www.w3.org/2000/svg">

  <symbol id="turnon-ico" xmlns="http://www.w3.org/2000/svg" viewBox="0 0 120 108.9">
    <path d="M60.02,0L0,38.75l5.85,9.07,11.07-7.14v49.14h12.05v19.07l19.07-19.07h55.07V40.68l11.03,7.14,5.85-9.07L60.02,0Zm32.29,79.06H48.12l-10.76,10.77-.83,.83v-11.6h-8.84V33.73L60.02,12.8l32.29,20.93v45.33Z"/>
    <g><g><path d="M36.06,47.04l4.33,4.33c10.81-10.81,28.39-10.81,39.21,0l4.33-4.33c-13.2-13.2-34.68-13.2-47.87,0Z"/><path d="M44.29,55.26l4.33,4.33c6.27-6.27,16.48-6.27,22.76,0l4.33-4.33c-8.67-8.67-22.76-8.67-31.42,0Z"/></g><circle cx="60" cy="65.92" r="5.84"/></g>
</symbol>
 
<symbol xmlns="http://www.w3.org/2000/svg" xmlns:xlink="http://www.w3.org/1999/xlink" version="1.1" id="zigbee-ico" viewBox="0 0 24 24"><path d="M4.06,6.15C3.97,6.17 3.88,6.22 3.8,6.28C2.66,7.9 2,9.87 2,12A10,10 0 0,0 12,22C15,22 17.68,20.68 19.5,18.6L17,18.85C14.25,19.15 11.45,19.19 8.66,18.96C7.95,18.94 7.24,18.76 6.59,18.45C5.73,18.06 5.15,17.23 5.07,16.29C5.06,16.13 5.12,16 5.23,15.87L7.42,13.6L15.03,5.7V5.6H10.84C8.57,5.64 6.31,5.82 4.06,6.15M20.17,17.5C20.26,17.47 20.35,17.44 20.43,17.39C21.42,15.83 22,14 22,12A10,10 0 0,0 12,2C9.22,2 6.7,3.13 4.89,4.97H5.17C8.28,4.57 11.43,4.47 14.56,4.65C15.5,4.64 16.45,4.82 17.33,5.17C18.25,5.53 18.89,6.38 19,7.37C19,7.53 18.93,7.7 18.82,7.82L9.71,17.19L9,17.95V18.06H13.14C15.5,18 17.84,17.81 20.17,17.5Z" />
</symbol>

<symbol xmlns="http://www.w3.org/2000/svg" xmlns:xlink="http://www.w3.org/1999/xlink" version="1.1" id="iobroker-ico" viewBox="0 0 24 24"><path d="M12 2C11.5 2 11 2.04 10.5 2.11V4.85C11 4.75 11.5 4.7 12 4.7C12.5 4.7 13 4.75 13.5 4.85V2.12C13 2.04 12.5 2 12 2M9.82 2.25C5.4 3.25 2.11 7.24 2.11 12C2.11 17.5 6.53 22 12 22C17.47 22 21.89 17.5 21.89 12C21.89 7.24 18.6 3.25 14.19 2.25V5.03C17.17 5.96 19.34 8.73 19.34 12C19.34 16 16.05 19.3 12 19.3C7.96 19.3 4.67 16 4.67 12C4.67 8.73 6.84 5.96 9.82 5.03M12 5.45C11.5 5.45 11 5.5 10.5 5.62V18.27C11 18.38 11.5 18.44 12 18.44C12.5 18.44 13 18.39 13.5 18.27V5.62C13 5.5 12.5 5.45 12 5.45Z" />
</symbol>


<symbol id="homeassistant-ico" xmlns="http://www.w3.org/2000/svg" viewBox="0 0 512 512"><path d="M171.92,290.95v.23c.07,11.48-9.17,20.83-20.64,20.9h-.02c-11.55,.14-21.01-9.11-21.14-20.66-.13-11.54,9.12-21,20.66-21.13,11.54-.14,21.01,9.11,21.14,20.66Z"/><path d="M276.68,185.38c.07,11.47-9.17,20.83-20.64,20.9h-.04c-11.54,.12-21-9.14-21.12-20.68s9.14-21,20.68-21.12c11.54-.12,21,9.14,21.12,20.68v.22Z"/><path d="M381.33,290.98v.21c.07,11.48-9.17,20.83-20.64,20.9h-.04c-11.54,.13-21-9.13-21.12-20.68-.12-11.54,9.14-20.99,20.68-21.11,11.54-.13,21,9.13,21.12,20.68Z"/><path d="M508.56,279.73l-53.72-55.52v-87.4c.03-5.58-4.46-10.13-10.04-10.17h-41.91c-5.56,.03-10.06,4.55-10.06,10.11v23.83L266.66,31.89l-.13-.13-.14-.14c-2.91-2.83-6.68-4.24-10.44-4.24s-7.8,1.51-10.74,4.53L3.47,279.6c-2.18,2.24-3.42,5.24-3.46,8.37-.09,6.74,5.31,12.28,12.05,12.37H56.94v174.12c-.03,5.58,4.47,10.13,10.05,10.16H236.45v-79.49l-65.08-65.83c-6.35,2.74-13.2,4.15-20.11,4.16-28.31-.01-51.35-22.79-51.67-51.1-.33-28.53,22.55-51.93,51.08-52.25,28.54-.33,51.94,22.55,52.26,51.08,.01,7.01-1.38,13.95-4.09,20.41l37.68,38.09v-115.84c-12.97-5.25-23.26-15.54-28.52-28.52-10.7-26.46,2.07-56.58,28.52-67.29,26.46-10.7,56.59,2.07,67.29,28.52,10.71,26.46-2.06,56.58-28.52,67.29v115.84l37.69-38.09c-2.71-6.46-4.11-13.4-4.1-20.41v-.02c-.15-28.69,22.99-52.07,51.68-52.22l-.13-.02c28.1,.53,50.75,23.18,51.27,51.28,.54,28.86-22.41,52.69-51.27,53.23-6.92,0-13.76-1.42-20.11-4.15l-65.1,65.83v79.5h169.62c5.58-.04,10.07-4.59,10.04-10.16v-174.03h45.05c3.17,0,6.2-1.25,8.45-3.48,2.41-2.39,3.62-5.54,3.62-8.7s-1.14-6.14-3.44-8.52Z"/></symbol>



<symbol xmlns="http://www.w3.org/2000/svg" id="openhub-ico" viewBox="0 0 32 32"><path d="M3.449,21.989,14.4,11.025l1.6-1.6,1.6,1.6,8.087,8.087-.012.041-.16.47-.181.459-.2.448-.224.437-.2.354L16,12.62,4.613,24.016a13.1,13.1,0,0,1-1.164-2.028Z"/><path d="M16,2A14,14,0,1,1,5.431,25.162l.495-.5.359-.359.36-.36.36-.36.015-.015a11.708,11.708,0,1,0-2.5-5.03l-.78.782L2.7,20.365A13.994,13.994,0,0,1,16,2Z"/></symbol>
</svg>