<svg xmlns="http://www.w3.org/2000/svg">

  <symbol id="turnon-ico" xmlns="http://www.w3.org/2000/svg" viewBox="0 0 120 108.9">
    <path d="M60.02,0L0,38.75l5.85,9.07,11.07-7.14v49.14h12.05v19.07l19.07-19.07h55.07V40.68l11.03,7.14,5.85-9.07L60.02,0Zm32.29,79.06H48.12l-10.76,10.77-.83,.83v-11.6h-8.84V33.73L60.02,12.8l32.29,20.93v45.33Z"/>
    <g><g><path d="M36.06,47.04l4.33,4.33c10.81-10.81,28.39-10.81,39.21,0l4.33-4.33c-13.2-13.2-34.68-13.2-47.87,0Z"/><path d="M44.29,55.26l4.33,4.33c6.27-6.27,16.48-6.27,22.76,0l4.33-4.33c-8.67-8.67-22.76-8.67-31.42,0Z"/></g><circle cx="60" cy="65.92" r="5.84"/></g>
</symbol>
 
<symbol xmlns="http://www.w3.org/2000/svg" xmlns:xlink="http://www.w3.org/1999/xlink" version="1.1" id="zigbee-ico" viewBox="0 0 24 24"><path d="M4.06,6.15C3.97,6.17 3.88,6.22 3.8,6.28C2.66,7.9 2,9.87 2,12A10,10 0 0,0 12,22C15,22 17.68,20.68 19.5,18.6L17,18.85C14.25,19.15 11.45,19.19 8.66,18.96C7.95,18.94 7.24,18.76 6.59,18.45C5.73,18.06 5.15,17.23 5.07,16.29C5.06,16.13 5.12,16 5.23,15.87L7.42,13.6L15.03,5.7V5.6H10.84C8.57,5.64 6.31,5.82 4.06,6.15M20.17,17.5C20.26,17.47 20.35,17.44 20.43,17.39C21.42,15.83 22,14 22,12A10,10 0 0,0 12,2C9.22,2 6.7,3.13 4.89,4.97H5.17C8.28,4.57 11.43,4.47 14.56,4.65C15.5,4.64 16.45,4.82 17.33,5.17C18.25,5.53 18.89,6.38 19,7.37C19,7.53 18.93,7.7 18.82,7.82L9.71,17.19L9,17.95V18.06H13.14C15.5,18 17.84,17.81 20.17,17.5Z" />
</symbol>

<symbol xmlns="http://www.w3.org/2000/svg" xmlns:xlink="http://www.w3.org/1999/xlink" version="1.1" id="iobroker-ico" viewBox="0 0 24 24"><path d="M12 2C11.5 2 11 2.04 10.5 2.11V4.85C11 4.75 11.5 4.7 12 4.7C12.5 4.7 13 4.75 13.5 4.85V2.12C13 2.04 12.5 2 12 2M9.82 2.25C5.4 3.25 2.11 7.24 2.11 12C2.11 17.5 6.53 22 12 22C17.47 22 21.89 17.5 21.89 12C21.89 7.24 18.6 3.25 14.19 2.25V5.03C17.17 5.96 19.34 8.73 19.34 12C19.34 16 16.05 19.3 12 19.3C7.96 19.3 4.67 16 4.67 12C4.67 8.73 6.84 5.96 9.82 5.03M12 5.45C11.5 5.45 11 5.5 10.5 5.62V18.27C11 18.38 11.5 18.44 12 18.44C12.5 18.44 13 18.39 13.5 18.27V5.62C13 5.5 12.5 5.45 12 5.45Z" />
</symbol>


<symbol id="Layer_1" xmlns="http://www.w3.org/2000/svg" viewBox="0 0 32 32"><path class="home-assistant-ico" d="M10.25,16.78c.63,0,1.14,.5,1.15,1.13v.02c0,.62-.5,1.14-1.13,1.14-.63,.01-1.15-.5-1.15-1.13-.01-.63,.49-1.15,1.13-1.16Z"/><path class="cls-1" d="M17.13,12.14c0,.63-.5,1.14-1.13,1.14-.63,0-1.15-.5-1.15-1.13,0-.63,.49-1.15,1.13-1.15,.63-.01,1.14,.5,1.15,1.13h0Z"/><path class="cls-1" d="M20.57,17.94c-.01-.63,.5-1.15,1.13-1.16,.63,0,1.15,.5,1.15,1.14h0c.01,.63-.5,1.15-1.12,1.15h-.01c-.63,.01-1.15-.5-1.15-1.13Z"/><path class="cls-1" d="M30,17.76c0,.17-.07,.35-.2,.48-.12,.12-.29,.19-.46,.19h-2.46v9.52c0,.3-.25,.55-.55,.55h-9.28v-4.34l3.56-3.6c.35,.15,.72,.22,1.1,.22,1.58-.03,2.83-1.33,2.81-2.91-.03-1.53-1.26-2.76-2.8-2.8-1.57,.01-2.84,1.29-2.83,2.86,0,.38,.08,.76,.23,1.11l-2.06,2.09v-6.34c1.44-.58,2.14-2.23,1.55-3.68-.58-1.45-2.23-2.14-3.67-1.56-1.45,.59-2.15,2.23-1.56,3.68,.28,.71,.85,1.27,1.56,1.56v6.34l-2.07-2.09c.15-.35,.23-.73,.23-1.11-.02-1.56-1.3-2.81-2.86-2.8-1.56,.02-2.81,1.3-2.79,2.86,.01,1.55,1.27,2.79,2.82,2.79,.38,0,.75-.07,1.1-.22l3.56,3.6v4.34H5.66c-.3,0-.55-.25-.55-.55h0v-9.52H2.66c-.37-.01-.66-.31-.66-.68,0-.17,.07-.33,.19-.46L15.41,3.75c.16-.17,.37-.25,.59-.25,.2,0,.41,.08,.57,.23,0,0,0,.01,.01,.01h0l6.9,7.04v-1.3c0-.3,.25-.55,.55-.55h2.29c.31,0,.56,.25,.55,.55v4.78l2.94,3.04c.13,.13,.19,.29,.19,.46Z"/></symbol>



<symbol xmlns="http://www.w3.org/2000/svg" id="openhub-ico" viewBox="0 0 32 32"><path d="M3.449,21.989,14.4,11.025l1.6-1.6,1.6,1.6,8.087,8.087-.012.041-.16.47-.181.459-.2.448-.224.437-.2.354L16,12.62,4.613,24.016a13.1,13.1,0,0,1-1.164-2.028Z"/><path d="M16,2A14,14,0,1,1,5.431,25.162l.495-.5.359-.359.36-.36.36-.36.015-.015a11.708,11.708,0,1,0-2.5-5.03l-.78.782L2.7,20.365A13.994,13.994,0,0,1,16,2Z"/></symbol>
</svg>